<svg version="1.1" id="Layer_1" xmlns="http://www.w3.org/2000/svg" xmlns:xlink="http://www.w3.org/1999/xlink" x="0px" y="0px"
	 width="100%" viewBox="0 0 176 174" enable-background="new 0 0 176 174" xml:space="preserve">
<path fill="#FEFEFE" opacity="1.000000" stroke="none" 
	d="
M90.000000,175.000000 
	C60.000000,175.000000 30.500004,175.000000 1.000004,175.000000 
	C1.000003,117.000008 1.000003,59.000011 1.000001,1.000012 
	C59.666656,1.000008 118.333313,1.000008 176.999969,1.000004 
	C176.999985,58.999989 176.999985,116.999977 177.000000,174.999985 
	C148.166672,175.000000 119.333336,175.000000 90.000000,175.000000 
M88.061447,123.797401 
	C91.604065,129.760101 97.107300,131.205826 103.219414,127.138092 
	C106.993256,124.626518 110.186943,121.243202 113.711891,118.189934 
	C114.798706,129.412827 122.195641,132.638275 131.431198,126.069008 
	C132.107986,125.587624 132.757004,125.061218 133.381042,124.512642 
	C146.722641,112.784630 155.558975,98.014198 161.066223,81.396126 
	C163.251740,74.801323 163.699615,67.512131 164.035950,60.495819 
	C164.135864,58.411308 161.547318,55.060452 159.483688,54.353512 
	C157.688278,53.738461 154.895721,56.034222 151.429504,57.521976 
	C159.182037,62.278618 158.603256,68.398537 157.385605,74.296066 
	C153.919342,91.084305 146.164001,105.820900 134.936539,118.712013 
	C133.109314,120.809990 130.832550,122.628777 128.468552,124.103783 
	C127.101585,124.956688 124.545074,125.675278 123.610413,124.984406 
	C122.528206,124.184486 122.220451,121.743240 122.330849,120.064140 
	C122.491875,117.615143 123.093369,115.128235 123.915504,112.801826 
	C126.622269,105.142387 129.692856,97.608063 132.266388,89.906281 
	C133.851517,85.162506 131.915253,83.062340 126.657867,83.013100 
	C122.215706,97.427483 116.064972,110.955215 105.264755,121.794586 
	C103.368462,123.697739 100.135567,124.269127 97.519943,125.455551 
	C97.249733,122.659592 96.191483,119.661507 96.847702,117.103180 
	C99.485779,106.818375 103.156555,96.781281 105.456970,86.432854 
	C107.095291,79.062874 107.802536,71.335930 107.736633,63.778648 
	C107.668747,55.993641 103.105423,51.586010 96.768333,51.268166 
	C88.094620,50.833126 78.994690,58.975780 78.393356,67.710175 
	C78.037628,72.877129 80.140778,75.208672 84.139549,75.359573 
	C85.421486,69.772560 86.104652,64.196480 88.143776,59.170551 
	C88.974457,57.123119 92.799767,55.151909 95.164940,55.261097 
	C96.775650,55.335445 98.371574,58.991688 99.658043,61.228096 
	C100.175125,62.127003 100.058388,63.547802 99.870026,64.670662 
	C98.145905,74.948181 96.570671,85.258797 94.494576,95.466736 
	C92.618599,104.690681 90.169922,113.798149 88.061447,123.797401 
M32.038837,96.341980 
	C27.903910,104.463554 23.610186,112.509979 19.713198,120.744156 
	C18.181376,123.980843 18.829975,127.178513 22.761259,129.326416 
	C23.591003,127.651070 24.322924,126.200645 25.031155,124.738747 
	C29.377895,115.766464 33.654732,106.759079 38.139160,97.856224 
	C38.741039,96.661324 40.412872,95.180000 41.535336,95.223457 
	C45.289074,95.368813 49.018341,96.146217 53.051640,96.723732 
	C52.776703,98.604774 52.363422,100.058105 52.388287,101.503899 
	C52.487553,107.276154 52.292072,113.103188 53.046879,118.798454 
	C53.633076,123.221542 57.240944,124.489655 61.399826,123.665359 
	C67.748924,122.406975 75.609810,112.092812 75.527946,104.062645 
	C73.584091,107.195518 72.505280,109.873856 70.622795,111.742607 
	C67.960648,114.385307 64.704979,116.430122 61.703011,118.730499 
	C60.936111,114.987534 59.146141,111.122879 59.574413,107.522064 
	C61.757332,89.168587 66.006920,71.291016 73.911140,54.455315 
	C69.434052,50.303783 67.469307,49.902233 63.578907,54.507061 
	C55.642490,63.900902 48.117847,73.657204 40.746498,83.505882 
	C38.209698,86.895248 36.277218,89.373314 31.240480,88.417442 
	C27.091450,87.630043 22.371080,88.251236 19.705196,94.079063 
	C24.008217,94.079063 27.473337,94.012695 30.930325,94.150436 
	C31.450453,94.171158 31.932585,95.145531 32.038837,96.341980 
z"/>
<path fill="#2A2A2A" opacity="1.000000" stroke="none" 
	d="
M88.017616,123.377197 
	C90.169922,113.798149 92.618599,104.690681 94.494576,95.466736 
	C96.570671,85.258797 98.145905,74.948181 99.870026,64.670662 
	C100.058388,63.547802 100.175125,62.127003 99.658043,61.228096 
	C98.371574,58.991688 96.775650,55.335445 95.164940,55.261097 
	C92.799767,55.151909 88.974457,57.123119 88.143776,59.170551 
	C86.104652,64.196480 85.421486,69.772560 84.139549,75.359573 
	C80.140778,75.208672 78.037628,72.877129 78.393356,67.710175 
	C78.994690,58.975780 88.094620,50.833126 96.768333,51.268166 
	C103.105423,51.586010 107.668747,55.993641 107.736633,63.778648 
	C107.802536,71.335930 107.095291,79.062874 105.456970,86.432854 
	C103.156555,96.781281 99.485779,106.818375 96.847702,117.103180 
	C96.191483,119.661507 97.249733,122.659592 97.519943,125.455551 
	C100.135567,124.269127 103.368462,123.697739 105.264755,121.794586 
	C116.064972,110.955215 122.215706,97.427483 126.655739,83.011932 
	C131.915253,83.062340 133.851517,85.162506 132.266388,89.906281 
	C129.692856,97.608063 126.622269,105.142387 123.915504,112.801826 
	C123.093369,115.128235 122.491875,117.615143 122.330849,120.064140 
	C122.220451,121.743240 122.528206,124.184486 123.610413,124.984406 
	C124.545074,125.675278 127.101585,124.956688 128.468552,124.103783 
	C130.832550,122.628777 133.109314,120.809990 134.936539,118.712013 
	C146.164001,105.820900 153.919342,91.084305 157.385605,74.296066 
	C158.603256,68.398537 159.182037,62.278618 151.429504,57.521976 
	C154.895721,56.034222 157.688278,53.738461 159.483688,54.353512 
	C161.547318,55.060452 164.135864,58.411308 164.035950,60.495819 
	C163.699615,67.512131 163.251740,74.801323 161.066223,81.396126 
	C155.558975,98.014198 146.722641,112.784630 133.381042,124.512642 
	C132.757004,125.061218 132.107986,125.587624 131.431198,126.069008 
	C122.195641,132.638275 114.798706,129.412827 113.711891,118.189934 
	C110.186943,121.243202 106.993256,124.626518 103.219414,127.138092 
	C97.107300,131.205826 91.604065,129.760101 88.017616,123.377197 
z"/>
<path fill="#2A2A2A" opacity="1.000000" stroke="none" 
	d="
M32.235565,96.010376 
	C31.932585,95.145531 31.450453,94.171158 30.930325,94.150436 
	C27.473337,94.012695 24.008217,94.079063 19.705196,94.079063 
	C22.371080,88.251236 27.091450,87.630043 31.240480,88.417442 
	C36.277218,89.373314 38.209698,86.895248 40.746498,83.505882 
	C48.117847,73.657204 55.642490,63.900902 63.578907,54.507061 
	C67.469307,49.902233 69.434052,50.303783 73.911140,54.455315 
	C66.006920,71.291016 61.757332,89.168587 59.574413,107.522064 
	C59.146141,111.122879 60.936111,114.987534 61.703011,118.730499 
	C64.704979,116.430122 67.960648,114.385307 70.622795,111.742607 
	C72.505280,109.873856 73.584091,107.195518 75.527946,104.062645 
	C75.609810,112.092812 67.748924,122.406975 61.399826,123.665359 
	C57.240944,124.489655 53.633076,123.221542 53.046879,118.798454 
	C52.292072,113.103188 52.487553,107.276154 52.388287,101.503899 
	C52.363422,100.058105 52.776703,98.604774 53.051640,96.723732 
	C49.018341,96.146217 45.289074,95.368813 41.535336,95.223457 
	C40.412872,95.180000 38.741039,96.661324 38.139160,97.856224 
	C33.654732,106.759079 29.377895,115.766464 25.031155,124.738747 
	C24.322924,126.200645 23.591003,127.651070 22.761259,129.326416 
	C18.829975,127.178513 18.181376,123.980843 19.713198,120.744156 
	C23.610186,112.509979 27.903910,104.463554 32.235565,96.010376 
M62.249046,61.107494 
	C55.491451,70.359032 48.733852,79.610565 41.449768,89.582886 
	C46.586792,90.786232 50.066833,91.601433 53.489559,92.403206 
	C56.946838,81.839119 60.275539,71.667915 63.889141,61.020935 
	C63.828491,60.759682 63.767845,60.498432 63.707199,60.237179 
	C63.433567,60.452023 63.159935,60.666866 62.249046,61.107494 
z"/>
<path fill="#F6F6F6" opacity="1.000000" stroke="none" 
	d="
M63.604240,61.496716 
	C60.275539,71.667915 56.946838,81.839119 53.489559,92.403206 
	C50.066833,91.601433 46.586792,90.786232 41.449768,89.582886 
	C48.733852,79.610565 55.491451,70.359032 62.739464,61.157341 
	C63.229881,61.207188 63.604240,61.496716 63.604240,61.496716 
z"/>
<path fill="#F6F6F6" opacity="1.000000" stroke="none" 
	d="
M63.058094,61.044449 
	C63.159935,60.666866 63.433567,60.452023 63.707199,60.237179 
	C63.767845,60.498432 63.828491,60.759682 63.746689,61.258827 
	C63.604240,61.496716 63.229881,61.207188 63.058094,61.044449 
z"/>
</svg>